<?xml version="1.0" standalone="no"?>
<!DOCTYPE svg PUBLIC "-//W3C//DTD SVG 20010904//EN"
 "http://www.w3.org/TR/2001/REC-SVG-20010904/DTD/svg10.dtd">
<svg version="1.0" xmlns="http://www.w3.org/2000/svg"
 width="560.000000pt" height="560.000000pt" viewBox="0 0 560.000000 560.000000"
 preserveAspectRatio="xMidYMid meet">
<g transform="translate(0.000000,560.000000) scale(0.100000,-0.100000)"
fill="#000000" stroke="none">
<path d="M0 2800 l0 -2800 2800 0 2800 0 0 2800 0 2800 -2800 0 -2800 0 0
-2800z m1770 0 l0 -1400 -325 0 -325 0 0 1400 0 1400 325 0 325 0 0 -1400z
m2085 1386 c202 -25 319 -58 470 -133 123 -62 201 -120 287 -213 86 -92 129
-160 175 -276 46 -117 65 -225 65 -374 1 -274 -78 -488 -242 -663 -151 -161
-313 -249 -576 -312 -129 -31 -338 -45 -701 -45 l-253 0 -2 -382 -3 -383 -322
-3 -323 -2 0 1400 0 1400 653 0 c503 0 679 -3 772 -14z"/>
<path d="M3080 3184 l0 -486 338 5 c372 6 426 12 541 69 102 49 186 146 219
252 22 69 21 252 -1 323 -37 121 -129 222 -246 269 -112 45 -205 54 -543 54
l-308 0 0 -486z"/>
</g>
</svg>
